# xmcd
#
# Track frame offsets: 
#        150
#        20152
#        35054
#        56181
#        72853
#        93515
#        109077
#        126537
#        148024
#        167194
#        185381
#        207701
#        235158
#        249228
#        273033
#        300003
#        321483
#
# Disc length: 4517 seconds
#
# Revision: 0
# Processed by: cddbd v1.5.2PL0 Copyright (c) Steve Scherf et al.
# Submitted via: ExactAudioCopy v0.99pb5
#
DISCID=fe11a311
DTITLE=Владимир Иванов - Первый пластилиновый
DYEAR=2006
DGENRE=Folk/Rock
TTITLE0=Осень
TTITLE1=Брат
TTITLE2=Все, как ты хотел
TTITLE3=Лег снежок
TTITLE4=Парень
TTITLE5=Отпусти меня
TTITLE6=Тенденция
TTITLE7=Гармония
TTITLE8=Прошло
TTITLE9=Улетай
TTITLE10=Прогулки по Байкалу
TTITLE11=Отлей мне пулю
TTITLE12=Про лопушок (Дуня)
TTITLE13=К морю... (Бархатный сезон)
TTITLE14=Ангелы улетели
TTITLE15=Доктор твоей судьбы
TTITLE16=Спасибо, мама
EXTD=
EXTT0=
EXTT1=
EXTT2=
EXTT3=
EXTT4=
EXTT5=
EXTT6=
EXTT7=
EXTT8=
EXTT9=
EXTT10=
EXTT11=
EXTT12=
EXTT13=
EXTT14=
EXTT15=
EXTT16=
PLAYORDER=
